<svg data-v-fde0c5aa="" xmlns="http://www.w3.org/2000/svg" viewBox="0 0 300 300" class="iconAbove"><!----><defs data-v-fde0c5aa=""><!----></defs><rect data-v-fde0c5aa="" fill="transparent" x="0" y="0" width="300px" height="300px" class="logo-background-square"></rect><defs data-v-fde0c5aa=""><!----></defs><g data-v-fde0c5aa="" id="46f4fa1e-d4fe-4063-bd2a-8fd67c51ce50" fill="#000000" transform="matrix(5.343915586598918,0,0,5.343915586598918,4.752377821762847,191.9185184813576)"><path d="M6.16 6.93L6.16 8.37L9.73 8.37C9.31 9.94 7.89 11.04 6.18 11.04C4.10 11.04 2.47 9.43 2.47 7.35C2.47 5.27 4.10 3.66 6.18 3.66C7.60 3.66 8.80 4.41 9.43 5.57L10.90 4.78C9.99 3.10 8.21 1.96 6.18 1.96C3.19 1.96 0.79 4.38 0.79 7.35C0.79 10.33 3.19 12.74 6.18 12.74C9.15 12.74 11.57 10.33 11.57 7.35L11.57 6.93ZM20.44 9.07C20.41 6.97 18.87 5.46 16.75 5.46C14.61 5.46 13.00 7.00 13.00 9.10C13.00 11.20 14.60 12.74 16.77 12.74C18.57 12.74 19.91 11.67 20.32 10.15L18.66 10.15C18.36 10.89 17.66 11.36 16.77 11.36C15.59 11.36 14.77 10.54 14.68 9.36L20.42 9.36ZM16.77 6.86C17.68 6.86 18.32 7.37 18.62 8.17L14.82 8.17C15.14 7.39 15.82 6.86 16.77 6.86ZM25.67 5.46C24.97 5.46 24.34 5.76 23.87 6.27L23.87 5.60L22.21 5.60L22.21 12.60L23.87 12.60L23.87 8.33C23.87 7.58 24.47 7.00 25.24 7.00C26.01 7.00 26.58 7.58 26.58 8.33L26.58 12.60L28.23 12.60L28.23 8.16C28.23 6.63 27.04 5.46 25.67 5.46ZM32.39 12.74C33.79 12.74 34.79 11.85 34.79 10.59C34.79 9.26 33.67 8.73 32.73 8.35C32.04 8.07 31.71 7.93 31.71 7.49C31.71 7.09 31.99 6.86 32.46 6.86C32.92 6.86 33.32 7.07 33.51 7.39L34.56 6.53C34.20 5.93 33.30 5.46 32.36 5.46C31.05 5.46 30.07 6.35 30.07 7.58C30.07 8.82 31.10 9.35 32.15 9.73C32.88 10.03 33.22 10.22 33.22 10.62C33.22 11.06 32.83 11.31 32.34 11.31C31.83 11.31 31.27 11.06 31.06 10.52L29.72 11.13C30.05 12.09 31.22 12.74 32.39 12.74ZM39.64 12.74C41.81 12.74 43.40 11.15 43.40 9.10C43.40 7.05 41.81 5.46 39.64 5.46C37.47 5.46 35.88 7.05 35.88 9.10C35.88 11.15 37.47 12.74 39.64 12.74ZM39.64 11.20C38.45 11.20 37.54 10.27 37.54 9.10C37.54 7.93 38.45 7.00 39.64 7.00C40.81 7.00 41.74 7.93 41.74 9.10C41.74 10.27 40.81 11.20 39.64 11.20ZM45.22 12.60L46.88 12.60L46.88 0.14L45.22 0.14ZM51.17 12.74C52.57 12.74 53.57 11.85 53.57 10.59C53.57 9.26 52.45 8.73 51.50 8.35C50.82 8.07 50.49 7.93 50.49 7.49C50.49 7.09 50.77 6.86 51.24 6.86C51.70 6.86 52.10 7.07 52.29 7.39L53.34 6.53C52.97 5.93 52.08 5.46 51.14 5.46C49.82 5.46 48.84 6.35 48.84 7.58C48.84 8.82 49.88 9.35 50.93 9.73C51.66 10.03 51.99 10.22 51.99 10.62C51.99 11.06 51.61 11.31 51.12 11.31C50.61 11.31 50.05 11.06 49.84 10.52L48.49 11.13C48.83 12.09 50.00 12.74 51.17 12.74Z"></path></g><defs data-v-fde0c5aa=""><linearGradient data-v-fde0c5aa="" gradientTransform="rotate(25)" id="0810ef60-ddd5-47e8-9de1-b6ca8bdb5716" x1="0%" y1="0%" x2="100%" y2="0%"><stop data-v-fde0c5aa="" offset="0%" stop-color="#A53E33" stop-opacity="1"></stop><stop data-v-fde0c5aa="" offset="100%" stop-color="#BA69C9" stop-opacity="1"></stop></linearGradient></defs><g data-v-fde0c5aa="" id="e9549855-7afc-403e-b91d-ea0fbf17d857" stroke="none" fill="url(#0810ef60-ddd5-47e8-9de1-b6ca8bdb5716)" transform="matrix(0.15601244255570898,0,0,0.15601244255570898,72.07958485138288,29.331007843476925)"><path d="M633.7 181.2c1.2 12.1-1.4 22.3-11.4 27.9-7.4 4.2-14.7.7-21.5-4.1-4.9-3.4-9.8-6.8-15-9.8-47.5-27.5-95.2-57.3-142.6-84.8-22.8-13.2-21.4-12.6-1.5-27.7 27.2-20.8 48.5-17.2 78.7-.3 29.6 16.6 51.7 29.1 78.3 45.1 22.2 11.2 33.8 23.9 35 53.7zM842.8 457.4c-9.9 7.1-20.1 9.9-29.9 4-7.3-4.4-7.9-12.5-7.2-20.7.5-6 1-11.9 1-17.9.2-54.9 2.3-111.1 2.6-165.8.1-26.3.3-24.8 23.3-15.1 31.6 13.3 39.1 33.5 39.4 68.1.4 33.9.6 59.3-.2 90.3 1.5 24.9-3.7 41.2-29 57.1zM707.4 776.3c-11-5.1-18.5-12.5-18.3-23.9.2-8.5 6.9-13.1 14.3-16.5 5.4-2.5 10.8-5.1 16-8 47.7-27.2 97.5-53.3 145.1-80.3 22.9-13 21.7-12.1 24.7 12.6 4.2 34-9.6 50.5-39.4 68.1-29.2 17.2-51.2 30-78.4 44.8-20.9 13.6-37.7 17.2-64 3.2zM363.4 817.6c-1.1-12.1 1.6-22.3 11.6-27.8 7.5-4.1 14.7-.6 21.5 4.2 4.9 3.5 9.8 6.8 14.9 9.9 47.3 27.8 94.8 58 141.9 85.9 22.7 13.4 21.3 12.8 1.3 27.7-27.4 20.6-48.6 16.9-78.7-.3-29.5-16.8-51.5-29.4-77.9-45.7-22.1-11.3-33.6-24.1-34.6-53.9zM156.3 539.8c9.9-7 20.1-9.7 29.9-3.8 7.3 4.4 7.8 12.5 7 20.7-.6 6-1.1 11.9-1.1 17.9-.6 54.9-3.1 111.1-3.8 165.8-.3 26.3-.5 24.8-23.4 15-31.5-13.5-38.8-33.8-38.9-68.4-.1-33.9-.1-59.3.8-90.3-1.2-24.8 4.2-41.2 29.5-56.9zM294.2 222c11 5.1 18.4 12.6 18.1 24.1-.2 8.5-7 13-14.5 16.4-5.4 2.5-10.8 5-16 7.9-47.9 26.8-97.9 52.6-145.7 79.2-23 12.8-21.7 11.9-24.6-12.8-3.9-34 10-50.5 39.9-67.8 29.4-17 51.4-29.6 78.8-44.2 20.9-13.5 37.8-17 64-2.8zM729.8 111.2c-40 0-72.5 32.5-72.5 72.5 0 27.2 15.1 51 37.3 63.4-.4 64-.6 127.9-.3 191.9.1 17.5-7.1 25.5-21.2 36.7-8.2 6.6-14.8 12.4-20 18-4.7 5-11.8 7.1-18.5 5.5l-46.7-10.8c5.9 20.4.8 42.7-13.3 58.6l60 13.9c2.2.5 4.3.5 6.4.2 2.8 1.1 6.7-.4 11.5-3.1 14.7-8.5 62.9-35.4 72.5-41.3 21.3-13 30.8-24.9 30.2-50.3-1.5-71.5-1.8-143.2.3-214.7 27.4-10.4 46.8-36.9 46.8-67.8.1-40.2-32.5-72.7-72.5-72.7zm25.9 112.4c-7.4 4.8-16.3 7.7-25.9 7.7-13.9 0-26.3-5.9-35-15.4-7.8-8.5-12.5-19.8-12.5-32.1 0-26.3 21.3-47.5 47.5-47.5 26.3 0 47.5 21.3 47.5 47.5.1 16.6-8.5 31.3-21.6 39.8zM552.6 528.3l-8.1 8.6-1.9 2.1-10.1 10.7c-8.1 8.7-20.3 12.4-31.8 9.7l-11.8-2.7-2-.5-15.2-3.5c-11.7-2.7-21-11.5-24.4-23l-3.2-10.8-.6-2.2-4.5-15.3c-3.2-11.3-.4-23.5 7.6-32.1l8.1-8.6 1.9-2 10.2-10.9c6.3-6.8 15.2-10.5 24.3-10.5 2.5 0 5 .2 7.4.8l11.7 2.7 2.2.5 15 3.5c11.7 2.7 21.1 11.5 24.4 23l3.2 11 .6 2.2 4.5 15.3c3.4 11.2.5 23.5-7.5 32z"></path><path d="M888.8 473.5c-38.9 0-70.8 30.8-72.5 69.4-55.8 31.6-111.5 63.3-167 95.5-15.1 8.8-25.6 6.5-42.3-.2-10.5-4.2-19.3-7.1-27.1-8.8-7.1-1.5-12.7-6.7-14.7-13.6L552 570.9c-11.7 11.8-27.6 18.2-43.9 18.2-4.6 0-9.4-.5-13.9-1.6l17.4 59.4c1.1 3.7 3.5 6.7 6.5 8.6 1.4 2 4 3.8 7.4 5.8 14.7 8.6 62 36.9 71.9 42.3 21.9 12 36.9 14.3 58.7 1.2 60.4-36.5 121.6-71.9 183.8-105.3 12.9 11.8 30.1 19 48.9 19 40 0 72.5-32.5 72.5-72.5s-32.5-72.5-72.5-72.5zm0 120.1c-9.2 0-17.8-2.6-25.1-7.2-13.5-8.4-22.5-23.3-22.5-40.4 0-7 1.5-13.7 4.3-19.7 7.5-16.4 24.1-27.9 43.3-27.9 26.3 0 47.5 21.3 47.5 47.5.1 26.4-21.2 47.7-47.5 47.7z"></path><path d="M657.7 785c-13.9 0-26.9 3.9-38 10.8-55-32.6-110.2-65-165.6-97-15.1-8.7-18.3-19-20.9-36.9-1.6-11-3.5-20-5.8-27.5-2.1-6.8-.5-14.2 4.3-19.4l32.4-34.5c-20.7-5.2-37.4-20.7-43.9-41l-42 44.9c-2.4 2.5-3.8 5.6-4 8.8v.1c-1.1 2.2-1.4 5.4-1.4 9.3-.1 17-1.2 72.2-.9 83.5.6 25 6 39.2 28.2 51.5 62.8 35 125.1 71 186.1 109.1-.5 3.6-.8 7.2-.8 10.9 0 40 32.6 72.5 72.5 72.5 40 0 72.5-32.5 72.5-72.5S697.7 785 657.7 785zm0 120c-25.1 0-45.7-19.5-47.4-44.2-.1-1.1-.1-2.2-.1-3.3 0-22.3 15.3-41 36-46.1 3.7-.9 7.5-1.4 11.5-1.4 26.3 0 47.5 21.3 47.5 47.5.1 26.3-21.2 47.5-47.5 47.5z"></path><path d="M424.7 450.5l-60.1-14c-3.7-.8-7.4-.3-10.5 1.3-1.9.5-4.2 1.6-6.7 3-14.8 8.4-63.2 34.9-72.9 40.8-21.3 12.9-30.9 24.7-30.6 50.1 1 73 .7 146.1-2.1 219.1-24.8 11.5-42 36.7-42 65.8 0 40 32.5 72.5 72.5 72.5s72.5-32.5 72.5-72.5c0-29.1-17.3-54.3-42.1-65.8.9-63.8 1.6-127.6 1.7-191.4.1-17.5 7.4-25.4 21.5-36.5 8.7-6.8 15.7-12.9 21-18.8 4.7-5 11.8-7.1 18.5-5.6l45.5 10.5c-5.5-20.4-.4-42.7 13.8-58.5zM320 816.5c0 26.3-21.3 47.5-47.5 47.5-26.3 0-47.5-21.3-47.5-47.5 0-14.8 6.8-28.1 17.4-36.8 8.2-6.7 18.7-10.8 30.1-10.8 11.4 0 21.9 4 30.1 10.7 10.6 8.8 17.4 22.1 17.4 36.9z"></path><path d="M487.5 350.6c-1.3-4.5-4.6-8-8.5-9.8h-.1c-1.1-.8-2.3-1.6-3.7-2.4-14.6-8.7-61.7-37.4-71.6-42.9-21.9-12.1-36.8-14.6-58.7-1.6-64.1 38-129.1 74.9-195.2 109.4-11.4-7.5-25-11.8-39.6-11.8-40 0-72.5 32.5-72.5 72.5s32.5 72.5 72.5 72.5 72.5-32.5 72.5-72.5c0-3-.2-5.9-.5-8.8 56.5-31.4 112.8-62.9 169-94.9 15.2-8.7 25.7-6.3 42.3.5 10.4 4.2 19.1 7.1 26.8 8.9 6.9 1.6 12.2 6.8 14.2 13.5l12.6 43.3c15.1-15.1 36.9-21.4 57.8-16.7l-17.3-59.2zm-377.3 161c-26.3 0-47.5-21.3-47.5-47.5s21.3-47.5 47.5-47.5c5.3 0 10.5.9 15.3 2.5 18.8 6.4 32.3 24.1 32.3 45 0 1.7-.1 3.3-.3 5-2.5 23.9-22.8 42.5-47.3 42.5z"></path><path d="M626.4 312.9c-.7-25-6.3-39.1-28.6-51.3-65.4-35.7-130.4-72.7-193.8-111.9.1-1.2.1-2.4.1-3.6 0-40-32.6-72.5-72.5-72.5-40 0-72.5 32.5-72.5 72.5s32.5 72.5 72.5 72.5c16.5 0 31.7-5.5 43.8-14.8 56 32.6 112.1 65.1 168.5 97.1 15.2 8.6 18.5 18.9 21.3 36.7 1.7 10.8 3.5 19.5 5.8 27 2.1 6.7.4 13.9-4.5 19L535.2 417c20.7 5.2 37.4 20.8 43.8 41.1l42.1-44.9c2.3-2.5 3.6-5.3 4-8.4v-.1c.7-2.2 1-5 1-8.3-.1-17 .6-72.2.3-83.5zM350.8 189.5c-5.9 2.6-12.4 4.1-19.3 4.1-26.3 0-47.5-21.3-47.5-47.5 0-26.3 21.3-47.5 47.5-47.5 23.1 0 42.4 16.5 46.6 38.3.6 3 .9 6.1.9 9.2 0 19.3-11.6 36-28.2 43.4z"></path></g><!----></svg>